<?xml version="1.0" encoding="UTF-8"?>
<svg version="1.1" xmlns="http://www.w3.org/2000/svg" width="230" height="230">
<path d="M0 0 C0.74305893 0.29982285 1.48611786 0.59964569 2.25169373 0.90855408 C3.83649475 1.53793248 5.42660716 2.15488931 7.0294342 2.73683167 C12.17112125 4.65835892 17.30496188 6.81681664 21 11 C23.6159463 17.97039438 21.883764 26.42572634 21.16918945 33.65014648 C20.26416237 42.45577355 20.26416237 42.45577355 22 51 C25.97298989 55.49958986 31.53388028 57.81952435 36.96658325 60.11935425 C39.41909546 61.18150467 41.64832152 62.48452132 43.90625 63.91015625 C44.52371094 64.27947266 45.14117187 64.64878906 45.77734375 65.02929688 C46.34582031 65.37025391 46.91429687 65.71121094 47.5 66.0625 C48.13035156 66.43826172 48.76070312 66.81402344 49.41015625 67.20117188 C53.88045401 69.88045401 53.88045401 69.88045401 55 71 C55.0131396 72.53544814 54.9565336 74.07155676 54.87207031 75.60473633 C54.60257028 81.13853655 54.45579738 86.6665875 54.34912109 92.20581055 C54.28354658 94.59185083 54.18219067 96.97720137 54.04345703 99.36010742 C52.88793029 112.57251968 52.88793029 112.57251968 57.93774414 124.18011475 C62.04932234 127.35371695 66.43145747 129.50025899 71.19824219 131.5144043 C73.13481896 132.3367055 75.06855969 133.16570557 77 134 C78.17334396 134.49593658 79.34668793 134.99187317 80.55558777 135.50283813 C84.28626321 137.36708213 87.06353248 139.02963404 90 142 C91.76916181 147.46162263 91.5253599 152.66320975 91.26953125 158.3125 C91.24525141 159.89282636 91.226762 161.4732513 91.21379089 163.05371094 C91.16439783 167.19268083 91.03697063 171.32561721 90.89263916 175.46221924 C90.75908727 179.69143016 90.70016277 183.92162726 90.63476562 188.15234375 C90.49578333 196.43765019 90.2742623 204.71807261 90 213 C82.03970685 211.57469723 73.44068868 208.21230921 68 202 C65.98281692 196.57737934 67.04475035 190.57155915 67.66357422 184.94622803 C69.19228594 171.30476681 69.19228594 171.30476681 64.81689453 158.87207031 C59.31385113 154.23723238 53.03443438 151.48615777 46.20898438 149.33154297 C41.61394808 147.4248686 37.44431642 145.69088711 34 142 C32.77526619 138.06649838 32.94603078 134.34534781 33.12109375 130.2578125 C33.13382828 129.13430389 33.14656281 128.01079529 33.15968323 126.85324097 C33.20995104 123.27493797 33.32284171 119.70176182 33.4375 116.125 C33.4826547 113.6953859 33.52371753 111.26569206 33.56054688 108.8359375 C33.65962039 102.88888439 33.81008882 96.94480836 34 91 C33.22384842 90.69576614 32.44769684 90.39153229 31.64802551 90.07807922 C29.02134875 89.00869162 26.65775463 87.76574001 24.19921875 86.35546875 C23.30396484 85.84306641 22.40871094 85.33066406 21.48632812 84.80273438 C20.56271484 84.26970703 19.63910156 83.73667969 18.6875 83.1875 C17.31948242 82.40536133 17.31948242 82.40536133 15.92382812 81.60742188 C13.27337411 80.08554828 10.62771037 78.56089394 8 77 C7.31438995 76.75837631 6.62877991 76.51675262 5.9223938 76.26780701 C3.28036343 75.13445259 1.83807699 74.23293687 0 72 C-1.16107526 66.60226098 -0.93036575 61.24593654 -0.78125 55.76171875 C-0.76632078 54.15463581 -0.75493696 52.54751634 -0.74694824 50.94038391 C-0.71646588 46.71929617 -0.6379424 42.50042635 -0.54931641 38.2802124 C-0.46733717 33.97031663 -0.43091135 29.66006081 -0.390625 25.34960938 C-0.30493919 16.89872401 -0.16848559 8.44963822 0 0 Z " fill="#03F7B2" transform="translate(20,11)"/>
<path d="M0 0 C0.39533353 9.2136917 0.69660863 18.42443629 0.88080692 27.64478111 C0.96926199 31.92754501 1.08895908 36.2044802 1.2824707 40.48388672 C2.48891145 67.89779963 2.48891145 67.89779963 -1.46563721 74.41564941 C-5.82810575 78.67505607 -11.2660658 80.31993865 -17 82 C-26.02686501 84.91263171 -26.02686501 84.91263171 -33 91 C-35.53731589 99.17970786 -34.4179596 108.26351888 -33.9375 116.6875 C-33.7749566 120.20349443 -33.6364037 123.71558352 -33.55116272 127.23432922 C-33.49476684 129.41642216 -33.39238339 131.59794025 -33.23826599 133.77531433 C-33.00510477 140.93250961 -33.00510477 140.93250961 -35.82705688 143.96037292 C-39.94323419 146.81255003 -44.33161911 148.74222556 -49.09375 150.27734375 C-56.12122722 153.03397846 -62.49085166 155.71473062 -67 162 C-69.51199368 170.03918794 -68.72908099 179.02624185 -68.16210938 187.31225586 C-67.33247899 199.95786607 -67.33247899 199.95786607 -69.5378418 203.40087891 C-71.63471085 204.99884712 -73.56473038 206.00787346 -76 207 C-77.01707031 207.62648437 -78.03414062 208.25296875 -79.08203125 208.8984375 C-79.98308594 209.38570312 -80.88414062 209.87296875 -81.8125 210.375 C-82.72644531 210.87773437 -83.64039063 211.38046875 -84.58203125 211.8984375 C-87 213 -87 213 -90 213 C-90.3486357 203.89915878 -90.61457499 194.80063535 -90.77718258 185.69455814 C-90.85526239 181.46510526 -90.96096577 177.24023915 -91.1315918 173.01342773 C-91.29546047 168.92810714 -91.38441822 164.84717196 -91.42315865 160.75881767 C-91.45073055 159.20533557 -91.50459344 157.65207628 -91.58595085 156.10048103 C-91.84118962 151.02763145 -91.76405275 146.80690711 -90 142 C-85.97926064 137.61226585 -80.39368359 135.271382 -75 133 C-73.51737923 132.35951973 -73.51737923 132.35951973 -72.00480652 131.70610046 C-70.33141718 131.00488202 -68.65663097 130.30698386 -66.98019409 129.61308289 C-62.69934822 127.67579685 -59.011146 125.67477303 -56 122 C-53.04700543 113.85955418 -54.29495627 104.65860426 -54.875 96.1875 C-55.06000663 92.68514138 -55.21672575 89.18667244 -55.32180786 85.6809845 C-55.39224896 83.50955544 -55.51117349 81.3390092 -55.68478394 79.17338562 C-55.81142939 76.20189555 -55.81828017 73.86197698 -55 71 C-52.34357844 68.24325566 -49.41684676 66.66392014 -46 65 C-44.46129678 64.12862971 -42.92562013 63.25186859 -41.39453125 62.3671875 C-39.86937575 61.53244766 -38.34202769 60.70170124 -36.8125 59.875 C-35.2759726 59.04158548 -33.74078642 58.2056929 -32.20703125 57.3671875 C-31.20893433 56.82747314 -31.20893433 56.82747314 -30.19067383 56.27685547 C-29.10629028 55.64481201 -29.10629028 55.64481201 -28 55 C-26.9260498 54.47172607 -25.85209961 53.94345215 -24.74560547 53.39916992 C-21.57256137 51.16699804 -21.57256137 51.16699804 -21.52856445 47.04858398 C-21.61439107 45.44616734 -21.72774637 43.8450733 -21.86328125 42.24609375 C-21.94200184 40.49048163 -22.01480498 38.73459609 -22.08227539 36.97851562 C-22.1434404 35.61593628 -22.1434404 35.61593628 -22.20584106 34.22583008 C-22.97383833 14.14846973 -22.97383833 14.14846973 -19.14648438 8.04345703 C-14.09726219 3.45907388 -6.95059497 0 0 0 Z " fill="#07EBAA" transform="translate(212,11)"/>
<path d="M0 0 C4.39222784 1.3271303 8.14237009 3.05289925 12.11328125 5.34375 C12.68084137 5.66930374 13.24840149 5.99485748 13.8331604 6.33027649 C15.66270689 7.38157234 17.48765 8.4405766 19.3125 9.5 C20.57277291 10.22654626 21.83327224 10.95269992 23.09399414 11.6784668 C32.43018358 17.06032469 41.73961352 22.48866695 51 28 C51.87975998 28.37228226 52.75951996 28.74456451 53.66593933 29.12812805 C56 31 56 31 56.60127258 34.47380066 C56.61577687 35.9384782 56.60244749 37.40358451 56.56762695 38.86791992 C56.56835709 39.66815079 56.56908722 40.46838165 56.56983948 41.29286194 C56.56635437 43.93941913 56.52745184 46.58421888 56.48828125 49.23046875 C56.47895635 51.06463153 56.47183872 52.89880677 56.46684265 54.73298645 C56.44774729 59.56169998 56.3986248 64.38966209 56.34332275 69.21807861 C56.29218487 74.14463128 56.2693403 79.07130532 56.24414062 83.99804688 C56.19050839 93.66569483 56.105165 103.33278494 56 113 C48.48324328 113 41.51983585 109.78479891 35.69451904 105.0824585 C30.58732906 98.8060397 33.06926729 88.35293819 33.75869751 80.87255859 C35.8962796 63.2201667 35.8962796 63.2201667 30.47851562 47.17333984 C24.65272037 41.62525183 16.80975722 38.94452043 9.14379883 37.00585938 C5.41851561 35.81395389 2.93120425 34.61240012 0 32 C-0.55510842 29.23599777 -0.71103009 27.35343858 -0.5859375 24.609375 C-0.57744781 23.90476135 -0.56895813 23.20014771 -0.56021118 22.47418213 C-0.52671308 20.23120919 -0.45146048 17.99187901 -0.375 15.75 C-0.34489485 14.22661457 -0.31751997 12.70317256 -0.29296875 11.1796875 C-0.22694019 7.45194813 -0.12345129 3.72632975 0 0 Z " fill="#04F6B1" transform="translate(54,31)"/>
<path d="M0 0 C1.46928697 10.47526259 3.00058235 21.69879863 0 32 C-5.31176872 38.70144857 -13.31083237 41.76353323 -21.09765625 44.79052734 C-25.05380258 46.43914351 -28.41089868 48.67295417 -32 51 C-32.66 51 -33.32 51 -34 51 C-33.9800145 51.62560822 -33.96002899 52.25121643 -33.93943787 52.89578247 C-33.74007593 59.4167038 -33.60449159 65.93675829 -33.50561523 72.45996094 C-33.46039807 74.89293585 -33.39901088 77.32566678 -33.32104492 79.7578125 C-33.21165081 83.25842416 -33.16078766 86.75580166 -33.12109375 90.2578125 C-33.07464218 91.34240753 -33.02819061 92.42700256 -32.98033142 93.54446411 C-32.97539354 100.95808697 -32.97539354 100.95808697 -35.95941162 103.99250793 C-38.24763684 105.53085893 -40.52540418 106.79046624 -43 108 C-43.97710937 108.63808594 -44.95421875 109.27617187 -45.9609375 109.93359375 C-47.15589844 110.67802734 -47.15589844 110.67802734 -48.375 111.4375 C-49.18710938 111.95183594 -49.99921875 112.46617187 -50.8359375 112.99609375 C-53 114 -53 114 -56 113 C-56.5588801 102.55310311 -56.98379015 92.10980936 -57.24349213 81.65095329 C-57.36823997 76.79200697 -57.53684807 71.9433488 -57.81054688 67.09033203 C-59.52483607 35.87814533 -59.52483607 35.87814533 -53.79751587 27.9519043 C-48.22695796 23.07267034 -41.90624493 20.43404607 -34.95782471 18.06036377 C-31.0014183 16.64201399 -27.61755239 14.6478275 -24.07421875 12.421875 C-20.82838063 10.55440649 -17.58134442 8.68903937 -14.33398438 6.82421875 C-13.27888672 6.21707031 -12.22378906 5.60992187 -11.13671875 4.984375 C-9.75552856 4.19111816 -9.75552856 4.19111816 -8.34643555 3.38183594 C-2.60388693 0 -2.60388693 0 0 0 Z " fill="#04F5B1" transform="translate(178,31)"/>
<path d="M0 0 C18.6068306 9.3034153 18.6068306 9.3034153 21 12 C22.01499914 15.75887334 21.65678601 19.22123842 21.2890625 23.06640625 C21.17841338 25.26107986 21.07438007 27.45609513 20.97631836 29.65136719 C20.91475555 30.78425171 20.85319275 31.91713623 20.7897644 33.08435059 C19.20706194 49.98842821 19.20706194 49.98842821 24.10400391 65.52099609 C29.34749839 70.30308585 35.29465232 72.30169541 42.03710938 74.15576172 C51.58671785 76.8768021 51.58671785 76.8768021 55 81 C56.23164935 86.50937973 55.94713206 91.77233343 55.625 97.375 C55.57479736 98.8891765 55.52917714 100.40351231 55.48828125 101.91796875 C55.37848286 105.61530676 55.20620889 109.30664018 55 113 C51.51383846 112.32313971 48.82250989 110.93012425 45.73828125 109.19140625 C44.70960937 108.61382568 43.6809375 108.03624512 42.62109375 107.44116211 C41.52925781 106.82120361 40.43742187 106.20124512 39.3125 105.5625 C38.19359375 104.93158447 37.0746875 104.30066895 35.921875 103.65063477 C28.76115543 99.60114919 21.63359918 95.49820177 14.56762695 91.28540039 C9.75858542 88.41953423 4.90207848 85.72337694 0 83 C0 55.61 0 28.22 0 0 Z " fill="#01F8B2" transform="translate(20,91)"/>
<path d="M0 0 C0 27.06 0 54.12 0 82 C-3.63 83.98 -7.26 85.96 -11 88 C-12.91516856 89.08791683 -14.82563509 90.18426157 -16.7265625 91.296875 C-17.68796143 91.85874512 -18.64936035 92.42061523 -19.63989258 92.99951172 C-20.62497803 93.57717285 -21.61006348 94.15483398 -22.625 94.75 C-23.66100342 95.35473145 -24.69700684 95.95946289 -25.7644043 96.58251953 C-30.60111382 99.40857129 -35.42816537 102.24864114 -40.23046875 105.1328125 C-41.40198486 105.83325684 -41.40198486 105.83325684 -42.59716797 106.54785156 C-44.03843309 107.41127643 -45.47645731 108.28014221 -46.91064453 109.15527344 C-51.66595423 112 -51.66595423 112 -55 112 C-55 101.44 -55 90.88 -55 80 C-41.3125 72.1875 -41.3125 72.1875 -37.02075195 69.73901367 C-35.33405396 68.77572144 -35.33405396 68.77572144 -33.61328125 67.79296875 C-32.74479553 67.29778748 -32.74479553 67.29778748 -31.85876465 66.79260254 C-30.23682889 65.86583142 -28.61829935 64.93310639 -27 64 C-26.04375732 63.65259766 -25.08751465 63.30519531 -24.10229492 62.94726562 C-21.81605188 61.22468181 -21.81605188 61.22468181 -21.62934875 58.860672 C-21.53799415 55.90965615 -21.62475441 53.00055456 -21.75 50.05078125 C-21.78227715 47.81839184 -21.8121486 45.58596658 -21.83984375 43.35351562 C-21.91000046 39.8341508 -21.99976902 36.31858472 -22.13330078 32.80102539 C-22.79891451 13.6450935 -22.79891451 13.6450935 -19.75732422 9.17279053 C-16.32594288 5.98485912 -12.39571177 4.53739238 -8 3 C-7.09765625 2.45126221 -6.1953125 1.90252441 -5.265625 1.3371582 C-3 0 -3 0 0 0 Z " fill="#01F8B2" transform="translate(212,92)"/>
<path d="M0 0 C0.74305893 0.29982285 1.48611786 0.59964569 2.25169373 0.90855408 C3.83649475 1.53793248 5.42660716 2.15488931 7.0294342 2.73683167 C12.17112125 4.65835892 17.30496188 6.81681664 21 11 C23.6159463 17.97039438 21.883764 26.42572634 21.16918945 33.65014648 C20.26416237 42.45577355 20.26416237 42.45577355 22 51 C25.97298989 55.49958986 31.53388028 57.81952435 36.96658325 60.11935425 C39.41909546 61.18150467 41.64832152 62.48452132 43.90625 63.91015625 C44.52371094 64.27947266 45.14117187 64.64878906 45.77734375 65.02929688 C46.34582031 65.37025391 46.91429687 65.71121094 47.5 66.0625 C48.13035156 66.43826172 48.76070312 66.81402344 49.41015625 67.20117188 C53.88045401 69.88045401 53.88045401 69.88045401 55 71 C55.0131396 72.53544814 54.9565336 74.07155676 54.87207031 75.60473633 C54.60257028 81.13853655 54.45579738 86.6665875 54.34912109 92.20581055 C54.28354658 94.59185083 54.18219067 96.97720137 54.04345703 99.36010742 C52.88793029 112.57251968 52.88793029 112.57251968 57.93774414 124.18011475 C62.86310669 127.98185235 68.29702763 130.29048981 73.99165344 132.69284058 C85.5661067 137.72206689 85.5661067 137.72206689 90 142 C91.73800622 146.82245381 91.52846615 151.2694422 91.26953125 156.34375 C91.24524395 157.72228269 91.22675803 159.10092862 91.21379089 160.47961426 C91.1644487 164.08635446 91.03709213 167.68614474 90.89263916 171.29016113 C90.75896103 174.97633801 90.70013763 178.66365386 90.63476562 182.3515625 C90.49587798 189.57085736 90.27444632 196.78445057 90 204 C88.35 203.67 86.7 203.34 85 203 C85.66 202.67 86.32 202.34 87 202 C87.34901021 194.46459785 87.61476596 186.93003954 87.77718258 179.38837528 C87.85519239 175.88482121 87.96071027 172.38682614 88.1315918 168.88647461 C89.5520703 154.32172723 89.5520703 154.32172723 85.62936401 140.90762329 C82.20387965 137.69087929 78.29164471 136.06185387 73.86434937 134.63638306 C71.31297201 133.76548764 69.15851736 132.44050238 66.88671875 131.00390625 C64.75516558 129.76292026 62.62210256 128.52472384 60.48632812 127.29101562 C55.21855818 124.21855818 55.21855818 124.21855818 53 122 C52.75949097 119.82333374 52.75949097 119.82333374 52.77294922 117.09130859 C52.77310028 116.07040131 52.77325134 115.04949402 52.77340698 113.99765015 C52.78372955 112.89240997 52.79405212 111.7871698 52.8046875 110.6484375 C52.8075174 109.5192691 52.81034729 108.39010071 52.81326294 107.22671509 C52.82448538 103.60937029 52.84959378 99.99227034 52.875 96.375 C52.88502713 93.9270869 52.89415344 91.47916993 52.90234375 89.03125 C52.92443143 83.02074936 52.95792926 77.01039217 53 71 C52.2393927 70.70464859 51.4787854 70.40929718 50.69512939 70.10499573 C47.43310066 68.76757281 44.48100132 67.09263928 41.421875 65.33984375 C40.80983215 64.9899086 40.19778931 64.63997345 39.56719971 64.2794342 C38.28220202 63.54386137 36.99809655 62.80672792 35.71484375 62.06811523 C33.74431712 60.93422994 31.77084508 59.80561226 29.796875 58.67773438 C20.14763617 53.14763617 20.14763617 53.14763617 19 52 C19.02659689 50.00590146 19.06279207 48.01151659 19.14463806 46.0189209 C19.28637089 42.45635146 19.32748446 38.89398703 19.3762207 35.32910156 C19.41678033 33.45657175 19.48411371 31.58441359 19.5793457 29.71386719 C20.11709204 20.67506098 20.11709204 20.67506098 18 12 C13.69744441 7.36108462 7.83906512 5.11262658 2 3 C2.06119173 10.77145451 2.1382833 18.54257374 2.23571491 26.31364918 C2.28045551 29.92204877 2.31970305 33.53033451 2.34643555 37.13891602 C2.37243241 40.62099585 2.41280795 44.10263839 2.46318626 47.58444786 C2.48800764 49.56025199 2.49790939 51.5362252 2.50764465 53.51216125 C2.52743881 54.71317978 2.54723297 55.9141983 2.56762695 57.15161133 C2.57873001 58.21084305 2.58983307 59.27007477 2.60127258 60.36140442 C3.04687739 63.31021308 3.67563132 64.2097885 6 66 C1.125 64.125 1.125 64.125 0 63 C-0.0940067 61.03630847 -0.11743381 59.06920801 -0.11352539 57.10327148 C-0.11344986 55.84203964 -0.11337433 54.5808078 -0.11329651 53.28135681 C-0.1081891 51.89460206 -0.10297309 50.50784771 -0.09765625 49.12109375 C-0.09579201 47.71004791 -0.09436814 46.29900143 -0.09336853 44.88795471 C-0.08954379 41.16759465 -0.0797139 37.4472734 -0.06866455 33.72692871 C-0.05844948 29.93319219 -0.05387071 26.13944942 -0.04882812 22.34570312 C-0.03809158 14.89711769 -0.0210157 7.44856428 0 0 Z " fill="#1F9D75" transform="translate(20,11)"/>
<path d="M0 0 C0 2.97 0 5.94 0 9 C-0.65919434 9.35481445 -1.31838867 9.70962891 -1.99755859 10.07519531 C-8.9507482 13.83982462 -15.80467005 17.75050987 -22.625 21.75 C-23.66100342 22.35473145 -24.69700684 22.95946289 -25.7644043 23.58251953 C-30.60111382 26.40857129 -35.42816537 29.24864114 -40.23046875 32.1328125 C-41.40198486 32.83325684 -41.40198486 32.83325684 -42.59716797 33.54785156 C-44.03843309 34.41127643 -45.47645731 35.28014221 -46.91064453 36.15527344 C-51.66595423 39 -51.66595423 39 -55 39 C-55 36.03 -55 33.06 -55 30 C-54.24460938 29.64550781 -53.48921875 29.29101562 -52.7109375 28.92578125 C-41.07317507 23.29768302 -30.07999542 16.64284469 -19 10 C-15.75348634 8.05657477 -12.5031571 6.11977865 -9.25 4.1875 C-8.54125732 3.76106201 -7.83251465 3.33462402 -7.10229492 2.89526367 C-2.22628494 0 -2.22628494 0 0 0 Z " fill="#FBFDFC" transform="translate(212,165)"/>
<path d="M0 0 C3.32799826 1.2679483 6.39816862 2.69414798 9.484375 4.46875 C10.75099976 5.1944519 10.75099976 5.1944519 12.04321289 5.93481445 C13.38307251 6.7095813 13.38307251 6.7095813 14.75 7.5 C15.67868896 8.03391357 16.60737793 8.56782715 17.56420898 9.11791992 C24.11256047 12.88984656 30.65575929 16.67373931 37.1394043 20.55615234 C40.28945278 22.43908897 43.43656479 24.25080869 46.71875 25.89453125 C54.67261505 30.01084225 54.67261505 30.01084225 55.73046875 33.20703125 C55.75 35.4375 55.75 35.4375 55 39 C51.51383846 38.32313971 48.82250989 36.93012425 45.73828125 35.19140625 C44.70960937 34.61382568 43.6809375 34.03624512 42.62109375 33.44116211 C40.98333984 32.51122437 40.98333984 32.51122437 39.3125 31.5625 C38.19359375 30.93158447 37.0746875 30.30066895 35.921875 29.65063477 C28.06495234 25.20743676 20.26582972 20.67303663 12.50390625 16.06640625 C8.38263466 13.62429463 4.20549124 11.29390431 0 9 C0 6.03 0 3.06 0 0 Z " fill="#FBFDFC" transform="translate(20,165)"/>
<path d="M0 0 C18.6068306 9.3034153 18.6068306 9.3034153 21 12 C22.01499914 15.75887334 21.65678601 19.22123842 21.2890625 23.06640625 C21.17841338 25.26107986 21.07438007 27.45609513 20.97631836 29.65136719 C20.91475555 30.78425171 20.85319275 31.91713623 20.7897644 33.08435059 C19.20706194 49.98842821 19.20706194 49.98842821 24.10400391 65.52099609 C29.34209675 70.29815953 35.28939661 72.31965549 42.03710938 74.14013672 C46.97625388 75.5735305 51.43535058 77.17659182 55 81 C56.19486003 85.19307015 55.9554258 89.05913068 55.625 93.375 C55.57988281 94.49261719 55.53476563 95.61023438 55.48828125 96.76171875 C55.37069094 99.5133319 55.20673789 102.25388464 55 105 C50.125 103.25 50.125 103.25 49 101 C50.32 101.33 51.64 101.66 53 102 C54.23114741 95.18718989 55.14211292 88.40312933 52 82 C45.5449295 75.92530634 37.05017028 72.1661953 29.05200195 68.51367188 C25.50428905 66.75414704 21.82600429 64.82600429 19 62 C18.90673284 60.43452952 18.88254418 58.86487228 18.88647461 57.29663086 C18.88655014 56.29566879 18.88662567 55.29470673 18.88670349 54.26341248 C18.89186478 53.1748848 18.89702606 52.08635712 18.90234375 50.96484375 C18.9037587 49.85645645 18.90517365 48.74806915 18.90663147 47.60609436 C18.91224967 44.04986931 18.92480525 40.49370617 18.9375 36.9375 C18.94251266 34.53320403 18.94707597 32.12890708 18.95117188 29.72460938 C18.96222501 23.81638496 18.97898083 17.9081969 19 12 C17.35 11.34 15.7 10.68 14 10 C10.04 7.69 6.08 5.38 2 3 C1.67 26.43 1.34 49.86 1 74 C0.67 74 0.34 74 0 74 C0 49.58 0 25.16 0 0 Z " fill="#349273" transform="translate(20,91)"/>
<path d="M0 0 C0 24.09 0 48.18 0 73 C-0.33 73 -0.66 73 -1 73 C-1.33 49.57 -1.66 26.14 -2 2 C-6.95 4.97 -11.9 7.94 -17 11 C-17.66 11 -18.32 11 -19 11 C-18.9800145 11.61308014 -18.96002899 12.22616028 -18.93943787 12.8578186 C-18.7400542 19.24896947 -18.60448347 25.63923557 -18.50561523 32.03271484 C-18.46040184 34.4171945 -18.39901729 36.80142528 -18.32104492 39.18505859 C-18.21163222 42.61618381 -18.16078452 46.04400912 -18.12109375 49.4765625 C-18.07464218 50.53928375 -18.02819061 51.602005 -17.98033142 52.69692993 C-17.97542202 59.92320991 -17.97542202 59.92320991 -20.84927368 62.94351196 C-23.16643446 64.53090047 -25.46327855 65.79885664 -28 67 C-29.05896484 67.54414551 -30.11792969 68.08829102 -31.20898438 68.64892578 C-32.63694336 69.29063721 -32.63694336 69.29063721 -34.09375 69.9453125 C-45.36725143 74.81382699 -45.36725143 74.81382699 -53.1953125 83.59960938 C-54.44571316 89.48899649 -53.94986962 95.09893501 -53 101 C-51.02 100.505 -51.02 100.505 -49 100 C-50.3125 101.5 -50.3125 101.5 -52 103 C-52.99 103 -53.98 103 -55 103 C-55 95.41 -55 87.82 -55 80 C-53.03675781 78.87980469 -51.07351562 77.75960937 -49.05078125 76.60546875 C-47.13770166 75.51339632 -45.22472957 74.42113583 -43.31176758 73.32885742 C-41.98798654 72.57312701 -40.66409483 71.81759043 -39.34008789 71.06225586 C-37.43085675 69.97301041 -35.5220321 68.88305557 -33.61328125 67.79296875 C-33.02662186 67.45847214 -32.43996246 67.12397552 -31.83552551 66.77934265 C-30.22134113 65.85698267 -28.61057308 64.92865145 -27 64 C-26.04375732 63.65259766 -25.08751465 63.30519531 -24.10229492 62.94726562 C-21.81605188 61.22468181 -21.81605188 61.22468181 -21.62934875 58.860672 C-21.53799415 55.90965615 -21.62475441 53.00055456 -21.75 50.05078125 C-21.78227715 47.81839184 -21.8121486 45.58596658 -21.83984375 43.35351562 C-21.91000046 39.8341508 -21.99976902 36.31858472 -22.13330078 32.80102539 C-22.79891451 13.6450935 -22.79891451 13.6450935 -19.75732422 9.17279053 C-16.32594288 5.98485912 -12.39571177 4.53739238 -8 3 C-7.09765625 2.45126221 -6.1953125 1.90252441 -5.265625 1.3371582 C-3 0 -3 0 0 0 Z " fill="#349273" transform="translate(212,92)"/>
<path d="M0 0 C0.746708 3.22198316 0.91501659 5.79903381 0 9 C-3.33709773 12.15314464 -7.25331281 14.09220444 -11.3125 16.1875 C-12.36501953 16.76435547 -13.41753906 17.34121094 -14.50195312 17.93554688 C-17.65219166 19.65509246 -20.82435068 21.3279595 -24 23 C-26.09973248 24.13810488 -28.19752966 25.27979075 -30.29296875 26.42578125 C-31.65264771 27.1688855 -31.65264771 27.1688855 -33.03979492 27.92700195 C-33.6866626 28.28109131 -34.33353027 28.63518066 -35 29 C-35.75124739 25.77624058 -35.9211444 23.2023464 -35 20 C-31.63948899 16.84922635 -27.70167168 14.90818644 -23.625 12.8125 C-21.49199625 11.65269541 -19.35918185 10.49254252 -17.2265625 9.33203125 C-16.18532227 8.78111816 -15.14408203 8.23020508 -14.07128906 7.66259766 C-10.24706376 5.59240892 -6.5410049 3.35661907 -2.84130859 1.07299805 C-1 0 -1 0 0 0 Z " fill="#FBFCFC" transform="translate(178,54)"/>
<path d="M0 0 C4.22344011 2.17571157 8.411729 4.40743282 12.58056641 6.68603516 C14.27256423 7.60493851 15.97071015 8.51257042 17.67333984 9.41162109 C20.44817162 10.88616231 23.19329963 12.40683511 25.9375 13.9375 C26.83178711 14.4025293 27.72607422 14.86755859 28.64746094 15.34667969 C31.09711765 16.74580136 33.06703027 17.94221071 35 20 C35.73622845 23.13845507 35.57263676 25.844574 35 29 C30.77655989 26.82428843 26.588271 24.59256718 22.41943359 22.31396484 C20.72743577 21.39506149 19.02928985 20.48742958 17.32666016 19.58837891 C14.55182838 18.11383769 11.80670037 16.59316489 9.0625 15.0625 C8.16821289 14.5974707 7.27392578 14.13244141 6.35253906 13.65332031 C3.90288235 12.25419864 1.93296973 11.05778929 0 9 C-0.73622845 5.86154493 -0.57263676 3.155426 0 0 Z " fill="#FBFCFC" transform="translate(54,54)"/>
<path d="M0 0 C3.42717174 1.30247724 6.58185602 2.7939438 9.765625 4.609375 C10.65636719 5.11726562 11.54710938 5.62515625 12.46484375 6.1484375 C13.38394531 6.67695313 14.30304688 7.20546875 15.25 7.75 C16.15363281 8.26304687 17.05726562 8.77609375 17.98828125 9.3046875 C20.67542214 10.84351063 23.34188906 12.41160158 26 14 C26.87712646 14.51965332 27.75425293 15.03930664 28.65795898 15.57470703 C29.47594971 16.08372559 30.29394043 16.59274414 31.13671875 17.1171875 C31.86850342 17.56690918 32.60028809 18.01663086 33.35424805 18.47998047 C35 20 35 20 35.55786133 22.14111328 C35.5625 24.375 35.5625 24.375 35 28 C30.91106731 26.48759618 27.241306 24.53421679 23.45703125 22.375 C22.84736008 22.02743652 22.2376889 21.67987305 21.60954285 21.32177734 C20.32871254 20.59045485 19.04880386 19.8575161 17.76977539 19.12304688 C15.81083905 17.99904698 13.84803841 16.88202946 11.88476562 15.765625 C10.63778371 15.05249781 9.39103079 14.33897001 8.14453125 13.625 C7.01378174 12.97789062 5.88303223 12.33078125 4.71801758 11.6640625 C2 10 2 10 0 8 C-0.26991906 5.31160615 -0.08737357 2.70858064 0 0 Z " fill="#FAFCFC" transform="translate(54,145)"/>
<path d="M0 0 C0.48577204 3.13053094 0.77455877 4.99746992 0 8 C-1.58642578 9.48266602 -1.58642578 9.48266602 -3.7578125 10.81640625 C-4.57531982 11.32526367 -5.39282715 11.83412109 -6.23510742 12.35839844 C-7.60372925 13.17099121 -7.60372925 13.17099121 -9 14 C-9.97622314 14.58555664 -10.95244629 15.17111328 -11.95825195 15.77441406 C-15.10618523 17.64150859 -18.26891702 19.48069306 -21.4375 21.3125 C-23.06848633 22.26092773 -23.06848633 22.26092773 -24.73242188 23.22851562 C-32.6457529 27.82287645 -32.6457529 27.82287645 -35 29 C-35.88429933 25.73489478 -36.02484497 23.24789176 -35 20 C-31.76148786 17.10785279 -28.03221556 15.21853374 -24.21435547 13.20849609 C-19.81591173 10.80802239 -15.58409903 8.11737127 -11.3125 5.5 C-9.58268951 4.44256124 -7.84982698 3.39009124 -6.11328125 2.34375 C-5.36860596 1.89193359 -4.62393066 1.44011719 -3.85668945 0.97460938 C-2 0 -2 0 0 0 Z " fill="#FBFDFC" transform="translate(178,145)"/>
<path d="M0 0 C4.39222784 1.3271303 8.14237009 3.05289925 12.11328125 5.34375 C12.68084137 5.66930374 13.24840149 5.99485748 13.8331604 6.33027649 C15.66270689 7.38157234 17.48765 8.4405766 19.3125 9.5 C20.57277291 10.22654626 21.83327224 10.95269992 23.09399414 11.6784668 C32.43018358 17.06032469 41.73961352 22.48866695 51 28 C51.87975998 28.38742874 52.75951996 28.77485748 53.66593933 29.17402649 C56 31 56 31 56.60127258 34.17008972 C56.59016953 35.47802994 56.57906647 36.78597015 56.56762695 38.13354492 C56.56835709 38.85574722 56.56908722 39.57794952 56.56983948 40.32203674 C56.56635619 42.70894518 56.52746467 45.09390138 56.48828125 47.48046875 C56.47895565 49.13526849 56.47183834 50.79008204 56.46684265 52.44490051 C56.44775264 56.80018231 56.39863544 61.1546302 56.34332275 65.50958252 C56.29217294 69.95353921 56.26933779 74.39763066 56.24414062 78.84179688 C56.19051786 87.56158059 56.10518186 96.28068656 56 105 C55.01 104.67 54.02 104.34 53 104 C53 80.24 53 56.48 53 32 C44.42 27.05 35.84 22.1 27 17 C13.18055556 8.80555556 13.18055556 8.80555556 6.94750977 5.06884766 C4.88922112 3.86350772 4.88922112 3.86350772 2 3 C2.08084703 6.27184808 2.19368874 9.54182779 2.3125 12.8125 C2.33505859 13.74126953 2.35761719 14.67003906 2.38085938 15.62695312 C2.41630859 16.51962891 2.45175781 17.41230469 2.48828125 18.33203125 C2.51446533 19.15421143 2.54064941 19.9763916 2.56762695 20.82348633 C3.08463956 23.42606532 3.98202695 24.33910717 6 26 C1.125 24.125 1.125 24.125 0 23 C-0.08713831 21.29227642 -0.10700007 19.58101351 -0.09765625 17.87109375 C-0.09443359 16.83662109 -0.09121094 15.80214844 -0.08789062 14.73632812 C-0.07951172 13.64771484 -0.07113281 12.55910156 -0.0625 11.4375 C-0.05798828 10.34501953 -0.05347656 9.25253906 -0.04882812 8.12695312 C-0.03699826 5.41791505 -0.02051543 2.70898401 0 0 Z " fill="#298B6A" transform="translate(54,31)"/>
<path d="M0 0 C0.45746418 3.11075644 0.61618405 5.90341407 0 9 C-2.09384069 11.4060801 -4.6617229 12.61083463 -7.5 14 C-8.25796875 14.40589355 -9.0159375 14.81178711 -9.796875 15.22998047 C-11.38367388 16.07887846 -12.97765061 16.91448015 -14.578125 17.73730469 C-18.44866392 19.75529131 -22.21456322 21.9529712 -26 24.125 C-32.82281353 28 -32.82281353 28 -34 28 C-34 25.03 -34 22.06 -34 19 C-33.03344482 18.45641846 -33.03344482 18.45641846 -32.04736328 17.90185547 C-29.07242391 16.22768637 -26.09870811 14.55135506 -23.125 12.875 C-22.11179688 12.30523437 -21.09859375 11.73546875 -20.0546875 11.1484375 C-14.26319542 7.88144197 -8.52791723 4.54646313 -2.85888672 1.07080078 C-1 0 -1 0 0 0 Z " fill="#FAFCFC" transform="translate(212,74)"/>
<path d="M0 0 C0.88300781 0.50789063 1.76601563 1.01578125 2.67578125 1.5390625 C9.22891455 5.30062158 15.80063276 9.01490127 22.4453125 12.61328125 C26.31328843 14.71287063 30.15576362 16.85731087 34 19 C34 21.97 34 24.94 34 28 C30.55460979 26.69273231 27.39447498 25.1883393 24.19921875 23.35546875 C23.30396484 22.84306641 22.40871094 22.33066406 21.48632812 21.80273438 C20.56271484 21.26970703 19.63910156 20.73667969 18.6875 20.1875 C17.77548828 19.66607422 16.86347656 19.14464844 15.92382812 18.60742188 C14.12655573 17.57543966 12.33393265 16.53531194 10.54638672 15.48657227 C8.89920574 14.52495338 7.23984888 13.58377035 5.56689453 12.66772461 C0.19434559 9.61121687 0.19434559 9.61121687 -0.78125 6.54296875 C-0.6884375 5.76566406 -0.595625 4.98835938 -0.5 4.1875 C-0.4278125 3.39730469 -0.355625 2.60710937 -0.28125 1.79296875 C-0.1884375 1.20128906 -0.095625 0.60960938 0 0 Z " fill="#FBFDFC" transform="translate(20,74)"/>
<path d="M0 0 C0 7.59 0 15.18 0 23 C-0.99 23 -1.98 23 -3 23 C-2.67 16.4 -2.34 9.8 -2 3 C-6.72548485 5.36274242 -11.21838918 7.63061143 -15.73046875 10.30078125 C-16.75575684 10.90486816 -17.78104492 11.50895508 -18.83740234 12.13134766 C-20.40288818 13.05633057 -20.40288818 13.05633057 -22 14 C-24.05787622 15.20305112 -26.11646634 16.40488195 -28.17578125 17.60546875 C-29.18833984 18.19650391 -30.20089844 18.78753906 -31.24414062 19.39648438 C-32.25669922 19.98751953 -33.26925781 20.57855469 -34.3125 21.1875 C-35.34439453 21.79013672 -36.37628906 22.39277344 -37.43945312 23.01367188 C-38.44556641 23.60083984 -39.45167969 24.18800781 -40.48828125 24.79296875 C-41.38071533 25.3139917 -42.27314941 25.83501465 -43.19262695 26.37182617 C-46.45314258 28.26280615 -49.72742961 30.12995978 -53 32 C-53 56.09 -53 80.18 -53 105 C-53.99 105 -54.98 105 -56 105 C-56.55937426 95.5958109 -56.98396755 86.19742757 -57.24349213 76.78016472 C-57.36816829 72.404877 -57.53655287 68.04104551 -57.81054688 63.67236328 C-59.52482208 35.60305983 -59.52482208 35.60305983 -53.79751587 28.1237793 C-48.17984433 23.36324617 -41.82486424 20.63224225 -34.95782471 18.12481689 C-31.03983941 16.63486516 -27.61917108 14.63065834 -24.07421875 12.421875 C-20.82838063 10.55440649 -17.58134442 8.68903937 -14.33398438 6.82421875 C-13.27888672 6.21707031 -12.22378906 5.60992187 -11.13671875 4.984375 C-9.75552856 4.19111816 -9.75552856 4.19111816 -8.34643555 3.38183594 C-2.60388693 0 -2.60388693 0 0 0 Z " fill="#298A6A" transform="translate(178,31)"/>
<path d="M0 0 C0.33 0 0.66 0 1 0 C2.03376116 5.6871248 1.91057825 10.91489604 1.578125 16.66796875 C-0.06107469 35.50514148 -0.06107469 35.50514148 4.89453125 53.0546875 C9.57374803 57.2973816 14.87348372 59.11175794 20.8327179 60.90710449 C26.96241603 63.02220486 32.26842063 65.56772405 37 70 C38.76092568 74.81392485 38.52841338 79.27047632 38.26953125 84.34375 C38.24524395 85.72228269 38.22675803 87.10092862 38.21379089 88.47961426 C38.1644487 92.08635446 38.03709213 95.68614474 37.89263916 99.29016113 C37.75896103 102.97633801 37.70013763 106.66365386 37.63476562 110.3515625 C37.49587798 117.57085736 37.27444632 124.78445057 37 132 C35.35 131.67 33.7 131.34 32 131 C32.66 130.67 33.32 130.34 34 130 C34.34901021 122.46459785 34.61476596 114.93003954 34.77718258 107.38837528 C34.85519239 103.88482121 34.96071027 100.38682614 35.1315918 96.88647461 C36.5520703 82.32172723 36.5520703 82.32172723 32.62936401 68.90762329 C29.20387965 65.69087929 25.29164471 64.06185387 20.86434937 62.63638306 C18.31297201 61.76548764 16.15851736 60.44050238 13.88671875 59.00390625 C11.75516558 57.76292026 9.62210256 56.52472384 7.48632812 55.29101562 C2.21855818 52.21855818 2.21855818 52.21855818 0 50 C-0.24050903 47.86129761 -0.24050903 47.86129761 -0.22705078 45.18310547 C-0.22689972 44.18221893 -0.22674866 43.1813324 -0.22659302 42.15011597 C-0.21627045 41.06674957 -0.20594788 39.98338318 -0.1953125 38.8671875 C-0.1924826 37.76021515 -0.18965271 36.6532428 -0.18673706 35.51272583 C-0.17551519 31.96670863 -0.15040691 28.42094125 -0.125 24.875 C-0.1149728 22.47526406 -0.1058465 20.07552417 -0.09765625 17.67578125 C-0.07556932 11.78376849 -0.04207207 5.89190209 0 0 Z " fill="#3D9E7E" transform="translate(73,83)"/>
<path d="M0 0 C11.86150296 5.75801115 11.86150296 5.75801115 15.5 8.3125 C18.08187594 10.26253699 18.08187594 10.26253699 22 11 C22 13.97 22 16.94 22 20 C16.81057285 19.4176194 12.67404834 16.9971233 8.1875 14.5 C7.39923828 14.10296875 6.61097656 13.7059375 5.79882812 13.296875 C3.51715721 12.01676872 1.76261422 10.93836375 0 9 C-0.67447548 5.8856434 -0.50758275 3.13073937 0 0 Z " fill="#FBFDFC" transform="translate(88,204)"/>
<path d="M0 0 C0.77635349 5.00316694 0.77635349 5.00316694 0 8 C-2.62544881 10.63165555 -5.75919368 12.22232242 -9 14 C-10.79180253 15.14562087 -12.5834724 16.29144925 -14.375 17.4375 C-16.8359375 18.99609375 -16.8359375 18.99609375 -19 20 C-19.99 19.67 -20.98 19.34 -22 19 C-22 16.36 -22 13.72 -22 11 C-21.05898437 10.54109375 -20.11796875 10.0821875 -19.1484375 9.609375 C-17.89051714 8.98980228 -16.63271069 8.36999823 -15.375 7.75 C-14.75753906 7.44964844 -14.14007813 7.14929688 -13.50390625 6.83984375 C-10.41528575 5.3117894 -7.50363023 3.72311425 -4.6640625 1.765625 C-2 0 -2 0 0 0 Z " fill="#FBFDFC" transform="translate(144,125)"/>
<path d="M0 0 C0.4230906 3.06740683 0.67050591 5.0390459 0 8 C-2.2443024 10.66550201 -5.00776711 12.26076463 -8 14 C-8.94875 14.56203125 -9.8975 15.1240625 -10.875 15.703125 C-18.42464953 20 -18.42464953 20 -22 20 C-22 17.03 -22 14.06 -22 11 C-20.99710937 10.59136719 -19.99421875 10.18273437 -18.9609375 9.76171875 C-15.001395 8.06519941 -11.33153316 5.99769492 -7.625 3.8125 C-1.12171629 0 -1.12171629 0 0 0 Z " fill="#FCFDFD" transform="translate(144,204)"/>
<path d="M0 0 C7.33333333 3.66666667 14.66666667 7.33333333 22 11 C22 13.64 22 16.28 22 19 C17.9889361 19 16.9791042 18.70234525 13.671875 16.8125 C12.87265625 16.36132812 12.0734375 15.91015625 11.25 15.4453125 C10.0125 14.72988281 10.0125 14.72988281 8.75 14 C7.90953125 13.52304688 7.0690625 13.04609375 6.203125 12.5546875 C4.13108107 11.37738981 2.06495572 10.18968642 0 9 C0 6.03 0 3.06 0 0 Z " fill="#FCFDFD" transform="translate(88,125)"/>
<path d="M0 0 C0.33 0 0.66 0 1 0 C1.83476925 4.9058444 2.00495787 9.37012796 1.71875 14.33203125 C0.61612349 28.33896355 0.61612349 28.33896355 4.46972656 41.32128906 C8.28416036 44.7975567 12.80976082 46.47529842 17.64160156 48.11230469 C21.56156598 49.58776956 24.97338675 51.83122728 28.5 54.0625 C29.73836259 54.80542405 30.97783644 55.546501 32.21875 56.28515625 C35 58 35 58 36 59 C36.14115161 61.67058851 36.04247107 64.32432238 36 67 C35.67 67 35.34 67 35 67 C34.94851807 65.92314941 34.89703613 64.84629883 34.84399414 63.73681641 C34.36277155 59.90787737 34.36277155 59.90787737 31.62670898 57.90771484 C30.07705444 57.06781006 30.07705444 57.06781006 28.49609375 56.2109375 C27.36236328 55.57929687 26.22863281 54.94765625 25.06054688 54.296875 C23.85329225 53.65544443 22.64560662 53.01482443 21.4375 52.375 C20.25589718 51.72886918 19.07554245 51.08045038 17.89648438 50.4296875 C15.69719937 49.21902638 13.49199594 48.0190075 11.27905273 46.83349609 C10.19696533 46.22844238 9.11487793 45.62338867 8 45 C7.28929352 44.66754776 6.57858704 44.33509552 5.84634399 43.99256897 C0.41268838 41.18784013 0.41268838 41.18784013 -0.68995667 38.01409912 C-0.92787337 35.55738412 -0.90112434 33.2269638 -0.78125 30.76171875 C-0.76993042 29.88095169 -0.75861084 29.00018463 -0.74694824 28.09272766 C-0.70227979 25.28874006 -0.60195033 22.48993186 -0.5 19.6875 C-0.45985999 17.78327717 -0.4233601 15.87897389 -0.390625 13.97460938 C-0.3025772 9.31442084 -0.16460791 4.65808729 0 0 Z " fill="#1F8B68" transform="translate(39,23)"/>
<path d="M0 0 C5.62439105 1.56031494 10.27081659 4.29732049 15.25 7.25 C16.04535156 7.71535156 16.84070313 8.18070313 17.66015625 8.66015625 C19.27980798 9.60996817 20.89069856 10.57487118 22.49267578 11.55419922 C25.00535861 13.05960589 25.00535861 13.05960589 27.81591797 14.26220703 C30.64347452 15.62109833 32.76823356 16.78858401 35 19 C36.21045566 23.1870352 35.95522732 27.06172313 35.625 31.375 C35.57988281 32.49261719 35.53476563 33.61023438 35.48828125 34.76171875 C35.37069094 37.5133319 35.20673789 40.25388464 35 43 C30.125 41.25 30.125 41.25 29 39 C30.32 39.33 31.64 39.66 33 40 C34.23114741 33.18718989 35.14211292 26.40312933 32 20 C25.5449295 13.92530634 17.05017028 10.1661953 9.05200195 6.51367188 C5.82441311 4.91291587 2.92370778 3.10246613 0 1 C0 0.67 0 0.34 0 0 Z " fill="#077651" transform="translate(40,153)"/>
<path d="M0 0 C0.66 0.33 1.32 0.66 2 1 C0.23158577 2.10803692 -1.53998976 3.21102726 -3.3125 4.3125 C-3.87485352 4.6744043 -4.43720703 5.03630859 -5.01660156 5.40917969 C-8.59978792 7.67375346 -12.17624455 9.56963622 -16.05859375 11.27734375 C-25.13877194 15.07103211 -25.13877194 15.07103211 -30.94091797 22.44873047 C-32.00813488 28.30520224 -31.74272931 34.11609666 -31 40 C-29.02 39.505 -29.02 39.505 -27 39 C-28.3125 40.5 -28.3125 40.5 -30 42 C-30.99 42 -31.98 42 -33 42 C-33 34.41 -33 26.82 -33 19 C-31.03675781 17.87980469 -29.07351562 16.75960937 -27.05078125 15.60546875 C-25.13770166 14.51339632 -23.22472957 13.42113583 -21.31176758 12.32885742 C-19.98798654 11.57312701 -18.66409483 10.81759043 -17.34008789 10.06225586 C-15.43085675 8.97301041 -13.5220321 7.88305557 -11.61328125 6.79296875 C-10.73329216 6.29122383 -10.73329216 6.29122383 -9.83552551 5.77934265 C-7.25395093 4.3042069 -4.71059523 2.81322103 -2.21166992 1.20043945 C-1.11689331 0.60622192 -1.11689331 0.60622192 0 0 Z " fill="#087450" transform="translate(190,153)"/>
<path d="M0 0 C4.79258808 1.38809716 8.79620746 3.49943446 13 6.125 C14.31427337 6.9310437 15.6294002 7.73569723 16.9453125 8.5390625 C17.61208008 8.94672852 18.27884766 9.35439453 18.96582031 9.77441406 C22.83041195 12.10281661 26.76319224 14.31210813 30.6953125 16.52392578 C34.90026339 18.90026339 34.90026339 18.90026339 36 20 C36.14115161 22.67058851 36.04247107 25.32432238 36 28 C35.34 28 34.68 28 34 28 C33.9690625 26.93394531 33.938125 25.86789063 33.90625 24.76953125 C33.3572532 20.82694116 33.3572532 20.82694116 30.21875 18.69921875 C28.99246917 18.00461801 27.7516064 17.33535516 26.5 16.6875 C25.14313386 15.92985816 23.78636709 15.17203834 22.4296875 14.4140625 C21.71264648 14.02508789 20.99560547 13.63611328 20.25683594 13.23535156 C16.33464472 11.08841436 12.48354496 8.82113038 8.625 6.5625 C7.5102832 5.92477661 7.5102832 5.92477661 6.37304688 5.27416992 C1.1128125 2.225625 1.1128125 2.225625 0 0 Z " fill="#077651" transform="translate(74,133)"/>
<path d="M0 0 C0.33 0 0.66 0 1 0 C2.24911667 7.65083958 2.09053426 15.27440986 2 23 C-2.875 21.25 -2.875 21.25 -4 19 C-2.68 19.33 -1.36 19.66 0 20 C0 13.4 0 6.8 0 0 Z " fill="#2DA982" transform="translate(73,173)"/>
<path d="M0 0 C0.33 0 0.66 0 1 0 C1 6.6 1 13.2 1 20 C2.32 19.67 3.64 19.34 5 19 C3.6875 20.5 3.6875 20.5 2 22 C1.01 22 0.02 22 -1 22 C-1.09377123 14.58165418 -1.17402193 7.33763707 0 0 Z " fill="#2DA37E" transform="translate(158,173)"/>
</svg>
